# xmcd
#
# Track frame offsets:
#	150
#	11960
#	22545
#	34075
#	45770
#	60290
#	71422
#	84425
#	96100
#	111240
#	122897
#	135400
#
# Disc length: 1953 seconds
#
# Revision: 0
# Processed by: cddbd v1.4PL0 Copyright (c) Steve Scherf et al.
# Submitted via: EasyCDDAExtractor 4.5.0.1
#
DISCID=88079f0c
DTITLE=Sam and Dave - Soul Man
DYEAR=1996
DGENRE=Soul
TTITLE0=Sam and Dave - Soul Man
TTITLE1=Sam and Dave - Soul Sister, Brown Sugar
TTITLE2=Sam and Dave - You Don't Know Like I Know
TTITLE3=Sam and Dave - Soothe Me
TTITLE4=Sam and Dave - Don't Pull Your Love
TTITLE5=Sam and Dave - Can't You Find Another Way (Of Doing It)
TTITLE6=Sam and Dave - I Thank You
TTITLE7=Sam and Dave - You Don't Know What You Mean To Me
TTITLE8=Sam and Dave - When Something Is Wrong With My Baby
TTITLE9=Sam and Dave - Said I Wasn't Gonna Tell Nobody
TTITLE10=Sam and Dave - You Got Me Hummin'
TTITLE11=Sam and Dave - Hold On I'm Comin'
EXTD=
EXTT0=
EXTT1=
EXTT2=
EXTT3=
EXTT4=
EXTT5=
EXTT6=
EXTT7=
EXTT8=
EXTT9=
EXTT10=
EXTT11=
PLAYORDER=
